# xmcd CD database file
#
# Track frame offsets:
#	150
#	22678
#	43423
#	68248
#
# Disc length: 1262 seconds
#
# Revision: 0
# Processed by: cddbd v1.5.1PL0 Copyright (c) Steve Scherf et al.
# Submitted via: CDex 1.51
#
DISCID=2d04ec04
DTITLE=satomi - love shouts
DYEAR=2005
DGENRE=JPop
TTITLE0=love shouts
TTITLE1=雲に囓られた月
TTITLE2=太陽
TTITLE3=砂漠の薔薇
EXTD=YEAR: 2005
EXTT0=
EXTT1=
EXTT2=
EXTT3=
PLAYORDER=
